<svg id="Camada_1" data-name="Camada 1" xmlns="http://www.w3.org/2000/svg" viewBox="0 0 3051.21 2728.83"><defs><style>.cls-1{fill:#f4d3ea;}.cls-2{fill:#ed2b79;}.cls-3{fill:#010101;}</style></defs><ellipse class="cls-1" cx="1525.6" cy="1364.41" rx="1338.09" ry="1249.88"/><ellipse class="cls-2" cx="1525.6" cy="1364.41" rx="846.9" ry="791.07"/><path class="cls-2" d="M1830.12,442.13l-61.89-15.3L1754,484.24l69,17.05-4.27,17.24-89.52-22.13,39.35-159.21,86,21.25-4.26,17.25-65.44-16.18-12.44,50.32,61.89,15.3Z"/><path class="cls-2" d="M2017.37,521.08c8.2-21.39,18.06-47.1,26.6-65.67l-.66-.3c-12.94,15.28-27.48,31.18-44.25,48.48l-58.84,60.89L1925.55,558l7.57-82.15c2.3-24.28,4.91-46.29,8.61-65.95l-.44-.2c-8.76,18.47-21.07,43.09-32.41,64.94l-32.62,62.46-18.45-8.23L1935,383.68l24.67,11L1953,478.52c-2,21.22-4.22,39.94-7.37,57.19l.66.29c10.52-13.43,23.18-27.5,38.27-43.42l59-60.57,24.67,11-57.42,154-18.9-8.42Z"/><path class="cls-2" d="M2144.28,491.05c8.7,3.67,21.54,10.78,33.74,19.24,17.4,12.05,26.52,22.81,30.21,35.44,3.4,10,2.05,21-5.29,31.56-9,13-25.51,18.44-43.31,13.8l-.28.4c10.58,12.07,18.24,33.06,4.38,53.07a44.2,44.2,0,0,1-30.11,19.1c-15.36,2.09-33.33-4.45-55.33-19.69a247.31,247.31,0,0,1-25.89-20.31Zm-65.61,131.87c3,3,7.84,6.62,14,10.91,18,12.48,39.18,17.38,52.76-2.22,12.75-18.4,2.21-37-16.79-50.12l-14.4-10Zm44.76-64.61,15.8,11c18.4,12.75,35.85,10.63,44.86-2.37,10.95-15.8,3.24-30.31-14.36-42.51-8-5.54-13-8.13-16.23-9.47Z"/><path class="cls-2" d="M2227.63,693.79l-48.24,25-15.66-15.31,154.48-78.34L2336.48,643l-74.61,156.4-16.18-15.81,23.52-49.14Zm50,25.76,21.51-45c4.87-10.2,9.93-18.87,14.82-27.35l-.34-.34c-8.55,5.26-17.43,10.52-26.67,15.44L2242.32,685Z"/><path class="cls-2" d="M2429.82,749.64l-129.3,100.89-13-16.69L2416.79,733Z"/><path class="cls-2" d="M2379.42,972.59l20.72-36.38c7.66-14.35,12.73-23.52,18.33-32.73l-.24-.42c-10.53.81-20.42,1.25-37.12,1.15l-41,1.19-12.3-21,96.93,1.33,45.58-82.52,12.42,21.21-22.23,38.11c-6.17,10.66-11,18.83-16.32,27l.37.63c10.74-.93,19.34-1.17,31.44-1.21l44.49-.11,12.29,21-94.08-2.72-46.83,86.64Z"/><path class="cls-2" d="M2465.4,1037.11l-54.31,1.39-7.39-20.62,173.18-2.92,8.62,24-135.47,108-7.64-21.3,42.64-33.91Zm33.73,45,39-31.05c8.84-7,17.18-12.63,25.29-18.12l-.16-.46c-10,1-20.28,1.85-30.74,2.24l-50.08.9Z"/><path class="cls-2" d="M2619.31,1163.79a302.82,302.82,0,0,1,9.62,44.11c4.22,30.12.23,52.55-11,68.62-11.23,16.32-28.84,27.38-55.11,31.06-26.51,3.72-49.34-1.44-66.41-14.53-17.31-13.06-29-37-33.44-68.54a342.08,342.08,0,0,1-3.4-38.34Zm-140.69,41.08c-.22,5.44.62,13.18,1.77,21.38,6.28,44.82,34.75,65.65,78.61,59.5,38.35-5.12,59.65-30.22,53.44-74.56a119.88,119.88,0,0,0-5.62-24.28Z"/><path class="cls-2" d="M2551.23,1508.82c-56.29-4.25-83.54-40.72-80.38-82.46,3.26-43.18,39-71,88.54-67.23,51.92,3.92,83.45,38.76,80.14,82.44C2636.16,1486.21,2599.76,1512.5,2551.23,1508.82Zm6.94-127.09c-34.94-2.65-67.67,13.91-70.19,47.15-2.53,33.48,26.85,54.74,64,57.55,32.52,2.46,67.77-12,70.43-47.14C2625,1404.35,2594.08,1384.44,2558.17,1381.73Z"/><path class="cls-2" d="M2613.21,1589c-.79,10.9-3.76,26-7.71,40-6.13,21.78-14.06,34.72-25.73,42.06-9.26,6-21.29,7.41-33.47,4-20.85-5.86-31-22.87-31.93-41.08l-.7-.2c-7.64,11-20.93,15.1-38.38,14.24-23.47-1-39.75-1.57-46.76,0l5.93-21.08c5.17-1.33,19.74-1,40.67.06,23.1,1.43,33.67-4.69,39.58-23l5.4-19.21-68.4-19.23,5.72-20.38Zm-77.64.16-5.86,20.85c-6.12,21.79,1.94,39,20,44,20.38,5.73,33.42-6.53,39.72-28,2.76-9.83,3.8-17.13,3.78-20.67Z"/><path class="cls-2" d="M2445.54,1796l27.33-57.59-53.42-25.35L2389,1777.24l-16-7.62,39.54-83.31,148.17,70.3-38,80-16-7.61,28.89-60.9-46.82-22.22-27.33,57.6Z"/><path class="cls-2" d="M2372.6,1820.64a74.94,74.94,0,0,0-30.3,25.24c-12.25,17.86-10,34.76,3.66,44.12,12.64,8.67,24.82,6.4,44.37-7,23-16.7,43.76-22.5,62.82-9.42,21.07,14.45,24.74,42.65,6.71,68.93-9.5,13.84-19.59,21.67-27.13,25.35l-10.94-14.59a65.32,65.32,0,0,0,24-21.27c12.66-18.46,6.45-33.06-2.78-39.39-12.65-8.67-24.51-4.71-44.53,9-24.52,16.82-43.54,20.89-63.41,7.26-20.86-14.32-28.32-42.16-6.43-74.06,8.94-13,22.53-24.67,32.3-28.59Z"/><path class="cls-2" d="M2326.47,2095.06a302.18,302.18,0,0,1-31.73,32.12c-22.94,20-43.91,28.85-63.53,28.18-19.8-.51-38.68-9.24-56.09-29.25-17.57-20.2-25.7-42.15-24-63.59,1.51-21.63,15.17-44.48,39.22-65.4a339.62,339.62,0,0,1,30.28-23.77Zm-111.16-95.52c-4.68,2.78-10.71,7.71-16.95,13.14-34.15,29.71-36.08,64.93-7,98.34,25.21,29.35,57.86,33.52,91.64,4.13a120.92,120.92,0,0,0,17.29-17.94Z"/><path class="cls-2" d="M2003.11,2229.09c-28.31-48.84-13.63-91.94,22.58-112.92,37.47-21.72,80.62-7.92,105.51,35,26.11,45.05,15.19,90.75-22.7,112.71C2069.76,2286.36,2027.51,2271.2,2003.11,2229.09ZM2111.87,2163c-17.57-30.32-49.73-48-78.57-31.25-29.06,16.84-30,53.1-11.31,85.31,16.35,28.21,48.16,49.14,78.69,31.45C2131,2230.91,2129.93,2194.12,2111.87,2163Z"/><path class="cls-2" d="M1896.39,2355.05c-8.35,4.43-22,9.88-36.23,14-20.34,5.86-34.45,6.13-46.56,1-9.93-3.72-17.54-11.66-21.11-24.05-4.37-15.2,1.84-31.42,16.69-42.29l-.13-.46c-16,.57-37.15-6.77-43.89-30.16a44.21,44.21,0,0,1,4.24-35.4c8.09-13.22,24.51-23,50.23-30.42a246.32,246.32,0,0,1,32.11-7.22Zm-60.69-134.19c-4.17.44-10.08,1.89-17.33,4-21,6.06-38.23,19.37-31.63,42.28,6.2,21.51,27.23,25.08,49.44,18.68L1853,2281Zm21.76,75.52L1839,2301.7c-21.51,6.2-30.9,21.06-26.53,36.26,5.32,18.47,21.44,21.67,42,15.75,9.35-2.7,14.52-4.95,17.59-6.59Z"/><path class="cls-2" d="M1632.56,2324.58l63.16-8.69-8.06-58.58-70.38,9.68-2.43-17.59,91.37-12.57,22.34,162.47-87.74,12.07-2.42-17.6,66.77-9.18-7.06-51.35-63.16,8.69Z"/><path class="cls-2" d="M1429.57,2321.41c.45,22.9,1,50.43.06,70.85l.73,0c6.24-19,13.73-39.23,22.76-61.57l31.61-78.55,16,.54,23.89,78.95c7,23.37,12.86,44.75,16.83,64.36h.49c1.17-20.41,3.31-47.85,5.59-72.36l6.74-70.14,20.18.68-16.93,163.53-27-.91-25.31-80.22c-6.13-20.41-11.12-38.6-14.68-55.76l-.73,0c-4.69,16.4-11.13,34.2-19.12,54.62l-31.85,78.3-27-.9-4.71-164.26,20.67.7Z"/><path class="cls-2" d="M1287.25,2225.79l-48.17,156.76-22.1-6.79L1191.11,2281a464.4,464.4,0,0,1-12.49-59.58l-.53.09c-4.58,21.5-10,40.72-17.48,65.14l-20.15,65.59-19.07-5.86,48.17-156.77,20.47,6.29,25.33,94.84c5.57,20.81,10.53,41.93,13.22,61.34l.77,0c4.91-20.12,10.24-39.11,18.24-65.16l20.59-67Z"/><path class="cls-2" d="M1016.68,2311.64c-6.54,13.33-16.72,19.33-26,14.56-4.77-2.44-7.45-6.27-10.78-11-2.47-3.72-4.94-7.45-8.19-9.11-3.46-1.77-6.19-1.25-10.17,5.46l-10.18-5.21c6.77-13.76,15.3-18.69,25.48-13.48,4.55,2.33,7.56,6.06,11.11,10.88,3,4.27,4.82,7.66,8.07,9.32,3.47,1.78,6.87-1.13,10.51-6.65Zm55.76-108.95,38.66-38.17,19.49,10-124.31,120.61-22.74-11.63L1008.42,2112l20.15,10.3-7.91,53.91Zm-55.41-9.77-7.21,49.34c-1.63,11.19-3.89,21-6.05,30.52l.43.22c6.6-7.55,13.53-15.21,20.89-22.65l35.91-34.93Z"/><path class="cls-2" d="M814.57,2073.26c34.25-44.88,79.68-47.86,112.95-22.47,34.43,26.28,38.24,71.42,8.13,110.88-31.59,41.4-78,48.85-112.8,22.28C787.26,2156.78,785.05,2111.94,814.57,2073.26Zm102.79,75.07c21.26-27.85,25.21-64.32-1.29-84.54-26.69-20.38-60.52-7.32-83.11,22.27-19.78,25.92-26.9,63.34,1.14,84.74C862,2192.06,895.52,2177,917.36,2148.33Z"/><path class="cls-2" d="M703.39,1827.59a152.93,152.93,0,0,1,37.51,34.8c14.94,19.82,22.19,39.95,19.62,62-2.38,19.47-14.6,39.65-35,55-39.2,29.25-88,24-121.08-19.94-11.42-15.15-17.06-29.5-18.58-37.18l16.87-6.32c2.16,9.34,6.23,20,16.19,33.2,24,31.86,59.51,37.71,92.35,13,33.22-25.05,37.76-59.85,14.76-90.36-8.35-11.07-15.62-17.48-20.49-19.9l-39,29.45,20.07,26.61L673,1918.19l-32.52-43.14Z"/><path class="cls-2" d="M548.35,1690.88c51-24.14,92.76-5.92,110.66,31.92,18.51,39.15,1.16,81-43.71,102.23-47.08,22.26-91.71,7.57-110.44-32C485.72,1752.53,504.36,1711.69,548.35,1690.88Zm56.83,113.9c31.68-15,51.94-45.56,37.69-75.7-14.36-30.35-50.41-34.3-84.07-18.38-29.47,13.94-53,43.9-37.9,75.8C535.88,1818.17,572.63,1820.18,605.18,1804.78Z"/><path class="cls-2" d="M603,1578.06l-146.35,91.35-5.49-22.2,72.28-44.2c19.8-12.17,37.71-22.87,55.32-31.74l-.12-.47c-19.53.07-41.25-1.57-63.79-3.52l-85.32-7.46-5.43-22,173.29,17.53Z"/><path class="cls-2" d="M497.68,1384.08l4.38,63.61,59-4.07-4.88-70.88,17.72-1.22,6.34,92-163.62,11.27-6.09-88.36,17.72-1.22,4.64,67.24,51.7-3.56-4.38-63.6Z"/><path class="cls-2" d="M413.93,1310.42c-1.1-10.87-.77-26.24.69-40.77,2.28-22.52,7.86-36.62,18.09-45.86,8.09-7.5,19.69-11,32.28-9.7,21.55,2.17,34.46,17.17,38.54,35l.72.07c5.63-12.15,18-18.48,35.35-20.64,23.3-3,39.42-5.31,46.06-8.06l-2.2,21.79c-4.87,2.2-19.28,4.41-40.08,7-23,2.57-32.36,10.43-35,29.48l-2,19.85,70.69,7.15-2.13,21.06Zm76.45-13.55,2.18-21.55c2.27-22.51-8.63-38-27.27-39.93-21.06-2.12-31.81,12.2-34.3,34.45-1,10.16-.79,17.52-.17,21Z"/><path class="cls-2" d="M593.48,1180.58l-156.92-47.66,6.72-22.11,94.66-26.18a465,465,0,0,1,59.55-12.69l-.1-.53c-21.51-4.5-40.75-9.84-65.19-17.26l-65.66-19.94,5.8-19.09,156.92,47.66L623,1083.26l-94.76,25.64c-20.78,5.64-41.89,10.68-61.29,13.43l0,.77c20.14,4.85,39.14,10.11,65.22,18l67,20.36Z"/><path class="cls-2" d="M617.59,966.09l37.27,39.52-10.42,19.26-117.74-127,12.15-22.47,170.87,28.79L699,924.07l-53.71-9.14Zm11-55.17-49.16-8.33c-11.15-1.89-20.87-4.38-30.37-6.75l-.23.43c7.4,6.77,14.9,13.87,22.17,21.39l34.1,36.7Z"/><path class="cls-2" d="M766.08,719.56c-18.18-13.93-40-30.69-55.41-44.15l-.48.55c11,16.75,22.09,35.21,33.92,56.2l41.68,73.7-10.43,12.21-76.61-30.58c-22.64-9.1-43-17.86-60.8-27l-.32.37c15.23,13.65,35.34,32.44,53.07,49.51l50.62,49L728.2,874.75,611,759.51,628.5,739,707,769.24c19.78,7.94,37.1,15.38,52.74,23.31l.47-.56c-9.89-13.89-19.78-30-30.76-49l-41.34-73.73,17.55-20.53L837,747.48l-13.44,15.73Z"/><path class="cls-2" d="M893.45,603l-49.76,39.85,37,46.15,55.46-44.41,11.1,13.87-72,57.64-102.5-128,69.14-55.36L853,546.61l-52.62,42.12,32.4,40.46,49.76-39.84Z"/><path class="cls-2" d="M984.12,632.62,904,489.52l20.17-11.3,86.4,46.73a462.78,462.78,0,0,1,51.72,32.12l.31-.45c-12.4-18.16-22.57-35.33-35-57.63L994,439.12l17.41-9.75,80.12,143.11-18.69,10.46-86.09-47.18c-18.89-10.34-37.6-21.34-53.5-32.8l-.52.57C943.93,521,954,538,967.3,561.73l34.23,61.15Z"/><path class="cls-2" d="M1121.35,403.35l-46.89,17-6.15-16.93L1182.44,362l6.15,16.93L1141.47,396l49.85,137.23-20.13,7.31Z"/><path class="cls-2" d="M1271.55,455.31l-5.79,54-21.41,4.62,19.94-172.06,25-5.38L1378.51,485l-22.12,4.76-28-46.74Zm49.08-27.5L1295,385c-5.82-9.69-10.25-18.7-14.63-27.46l-.47.1c-.33,10-.85,20.35-1.84,30.77l-5.71,49.76Z"/><path class="cls-2" d="M1410.23,317.78l21.13-1.35,9.35,145.94,69.93-4.49,1.14,17.73-91.06,5.84Z"/><path class="cls-2" d="M1684.86,414.26,1683,430l-59.68-7.07,1.86-15.71Z"/><path class="cls-3" d="M1444.83,1911.92c-6.72-8.42-11.47-14.52-16.37-20.49-11.82-14.39-23.09-29.3-35.74-42.91a561.91,561.91,0,0,0-41.76-40.35c-16.64-14.55-34.15-28.1-51.5-41.81q-25.44-20.08-51.33-39.59c-16.89-12.75-34-25.23-51.06-37.7-19.16-14-38.55-27.62-57.59-41.75-12.12-9-23.65-18.8-35.71-27.88-17.35-13.08-35.29-25.38-52.34-38.84-16.24-12.81-31.67-26.67-47.44-40.09-10.5-8.93-21.2-17.64-31.39-26.93s-20-19.11-29.81-28.86-19.61-19.28-28.8-29.48c-11.26-12.5-22-25.46-32.73-38.47-7.45-9.07-14.92-18.2-21.46-27.94-10-14.92-19.64-30.15-28.68-45.69a414.76,414.76,0,0,1-20.38-39.27A436.65,436.65,0,0,1,793.86,1260a372.92,372.92,0,0,1-11.6-44.19c-7.11-36.92-9.66-74.28-4.9-111.65,2.8-22,5.82-44.12,14.35-65,5.62-13.74,9.76-28.13,15.89-41.62,4.31-9.5,10.9-17.94,16.34-26.93,3-5,5.44-10.44,8.8-15.2a138.39,138.39,0,0,1,14-17.38c10.92-11.09,21.66-22.52,33.69-32.29,16.39-13.33,33.53-25.83,51.09-37.56,11.89-7.94,24.81-14.5,37.74-20.65a312.94,312.94,0,0,1,34.61-13.6c12.62-4.25,25.41-8.2,38.38-11.19,37.42-8.61,75.31-14,113.76-10.89a444.74,444.74,0,0,1,55.22,8.37,475.1,475.1,0,0,1,51.9,14.07c11.2,3.7,21.91,9.23,32.36,14.83,14.09,7.55,28.59,14.78,41.34,24.3a353.31,353.31,0,0,1,43.67,38.5,309.85,309.85,0,0,1,34.69,43.62c9.69,14.72,16.83,31.16,25.09,46.85,1,2,2,4,3,5.85,1-.38,1.67-.42,1.81-.7,6.89-13.91,13.11-28.2,20.79-41.65a206.14,206.14,0,0,1,21.31-30.54c12.29-14.58,25-28.93,38.71-42.15a222.63,222.63,0,0,1,52.84-37.3c12.87-6.63,25.65-13.7,39.16-18.7a479.62,479.62,0,0,1,52.77-15.91,351.08,351.08,0,0,1,46.88-8.14c27.33-2.84,54.8-3.6,82,1.49,22.6,4.23,45.37,8,67.58,13.85,22.61,6,44.73,14,65.12,26,17.18,10.12,35.27,19,51.31,30.68,15.41,11.25,29.36,24.8,42.74,38.54,12.16,12.49,23.2,26.19,33.73,40.12,6.28,8.32,10.94,18,15.77,27.3,5.77,11.17,11.13,22.58,16.3,34.05,2.74,6.09,5.41,12.39,6.84,18.87,4.64,21.21,11.17,42.4,12.39,63.86,1.7,29.8-.48,59.86-1.61,89.78-.32,8.47-2.8,16.84-4.19,25.28-.76,4.63.81,7,5.9,8.13,15.7,3.41,31.8,6,46.74,11.67a396.81,396.81,0,0,1,56.65,26.44c15,8.59,28.91,19.63,42.21,30.89,8.4,7.11,14.77,16.64,22.11,25,2.81,3.22,6.3,6,8.64,9.48,15.91,24,30.33,48.54,37.3,77.11,5.38,22,9.6,44.06,9.11,66.68-.44,20.63-2.11,41.21-8.51,61.14-5.44,16.92-9.08,34.48-15.41,51-5.07,13.24-12.38,25.74-19.79,37.9a505.71,505.71,0,0,1-29.54,44.1c-10,13.15-21.54,25.21-32.77,37.4-9.51,10.31-19.3,20.39-29.45,30.06-10.33,9.85-21.08,19.28-32,28.52-14.74,12.5-29.57,24.91-44.75,36.86-14.27,11.25-29,21.91-43.6,32.73-13.12,9.74-26.32,19.37-39.5,29-15.21,11.13-30.51,22.15-45.64,33.39-10.25,7.62-20.43,15.35-30.38,23.35-15.55,12.52-31.2,24.93-46.19,38.11-10.54,9.27-20.19,19.61-30,29.73-5.74,5.92-11.51,11.94-16.3,18.62-7,9.74-12.9,20.26-19.75,30.12a15.43,15.43,0,0,1-8.28,5.81c-1.5.37-4.61-2.94-5.91-5.22-12.64-22.18-28.24-41.83-46-60.27-25.93-27-56.13-48.63-85.16-71.68-24.07-19.11-49.75-36.16-74.46-54.46-22.17-16.42-44-33.32-66-50-2.93-2.22-5.71-5-9-6.24-2.35-.88-6.39-.63-8.14.9-12.12,10.59-23.81,21.67-35.68,32.55-6.77,6.19-14.1,11.85-20.28,18.59-8.79,9.61-16.9,19.86-25,30.08-6.16,7.75-11.89,15.84-17.72,23.85C1447.81,1906.29,1446.82,1908.44,1444.83,1911.92ZM1624,1256.78c-23,2.09-47,2.36-70,10.16-14.3,4.85-28.5,10.12-42.47,15.87a167.59,167.59,0,0,0-23.11,12.08c-9.84,6-20.58,11.36-28.58,19.38-13.73,13.77-27.79,27.31-38.66,44-12.54,19.17-22.32,39.5-27.94,61.46-3.94,15.39-5.8,31.54-6.64,47.45a237.72,237.72,0,0,0,2,44.45c1.92,14.12,6,28,9.67,41.8,2.3,8.69,4.71,17.54,8.58,25.59a460.56,460.56,0,0,0,22,40.54c8.63,14.14,17.49,28.29,27.82,41.16a559.59,559.59,0,0,0,40.35,44.67c13.77,13.83,28.3,27,43.33,39.42,25.89,21.41,52.26,42.25,78.75,62.91,13.59,10.59,28,20.14,41.81,30.42,11.07,8.24,21.75,17,32.76,25.31,24.08,18.18,48.49,35.92,72.32,54.42,26.7,20.73,50.17,45,72.94,69.94,4.13,4.52,7,4.3,10.84-.61,4.15-5.26,8.17-10.7,12.89-15.41,11.9-11.88,24-23.58,36.35-35,8.1-7.46,16.62-14.52,25.31-21.29,16-12.41,32.2-24.43,48.26-36.7s31.78-24.72,47.91-36.75c10.83-8.08,22.31-15.26,33.13-23.35,23.49-17.55,47.28-34.75,69.92-53.35,20.23-16.62,39.34-34.67,58.46-52.62,11.13-10.45,21.43-21.81,31.85-33,4.42-4.76,7.73-10.6,12.34-15.13,14.09-13.86,24.83-30.09,35.1-46.86a308.12,308.12,0,0,0,28.86-62.13c8.22-24.17,11.36-49.42,11.68-74.73.31-24.33-1.48-48.75-10.29-71.95-2-5.16-3.88-10.33-5.68-15.55-6.51-18.86-17.43-35.19-29.82-50.36s-26.56-28.8-43.11-39.54c-9.82-6.37-19.37-13.41-29.82-18.52-11.28-5.51-23.61-8.77-35.24-13.62-23-9.59-47.32-12.17-71.67-13.55-32.44-1.83-64.49,1.46-95,13.79-12.55,5.07-25.51,9.85-36.86,17-13.61,8.64-26.1,19.25-38.27,29.93-7.34,6.45-13.52,14.37-19.57,22.14-12.42,15.94-21.25,33.9-27.91,53-2.89,8.3-5.37,16.77-8.88,24.78-1,2.37-4.83,3.87-7.66,4.82-.61.21-3-3.5-3.83-5.67-2.21-5.59-3.69-11.48-6.09-17-6.82-15.63-12.33-32.17-21.41-46.36-9.59-15-21.84-28.59-34.45-41.26-21.91-22-49.31-35.45-78.33-45.11C1674.25,1260,1649.51,1258.58,1624,1256.78Z"/><path class="cls-2" d="M1624,1256.78c25.55,1.8,50.29,3.25,73.85,11.1,29,9.66,56.42,23.09,78.33,45.11,12.61,12.67,24.86,26.25,34.45,41.26,9.08,14.19,14.59,30.73,21.41,46.36,2.4,5.49,3.88,11.38,6.09,17,.86,2.17,3.22,5.88,3.83,5.67,2.83-1,6.62-2.45,7.66-4.82,3.51-8,6-16.48,8.88-24.78,6.66-19.07,15.49-37,27.91-53,6.05-7.77,12.23-15.69,19.57-22.14,12.17-10.68,24.66-21.29,38.27-29.93,11.35-7.2,24.31-12,36.86-17,30.5-12.33,62.55-15.62,95-13.79,24.35,1.38,48.69,4,71.67,13.55,11.63,4.85,24,8.11,35.24,13.62,10.45,5.11,20,12.15,29.82,18.52,16.55,10.74,30.7,24.35,43.11,39.54s23.31,31.5,29.82,50.36c1.8,5.22,3.72,10.39,5.68,15.55,8.81,23.2,10.6,47.62,10.29,71.95-.32,25.31-3.46,50.56-11.68,74.73a308.12,308.12,0,0,1-28.86,62.13c-10.27,16.77-21,33-35.1,46.86-4.61,4.53-7.92,10.37-12.34,15.13-10.42,11.19-20.72,22.55-31.85,33-19.12,18-38.23,36-58.46,52.62-22.64,18.6-46.43,35.8-69.92,53.35-10.82,8.09-22.3,15.27-33.13,23.35-16.13,12-31.91,24.54-47.91,36.75s-32.31,24.29-48.26,36.7c-8.69,6.77-17.21,13.83-25.31,21.29-12.37,11.39-24.45,23.09-36.35,35-4.72,4.71-8.74,10.15-12.89,15.41-3.89,4.91-6.71,5.13-10.84.61-22.77-25-46.24-49.21-72.94-69.94-23.83-18.5-48.24-36.24-72.32-54.42-11-8.32-21.69-17.07-32.76-25.31-13.83-10.28-28.22-19.83-41.81-30.42-26.49-20.66-52.86-41.5-78.75-62.91-15-12.43-29.56-25.59-43.33-39.42a559.59,559.59,0,0,1-40.35-44.67c-10.33-12.87-19.19-27-27.82-41.16a460.56,460.56,0,0,1-22-40.54c-3.87-8-6.28-16.9-8.58-25.59-3.66-13.83-7.75-27.68-9.67-41.8a237.72,237.72,0,0,1-2-44.45c.84-15.91,2.7-32.06,6.64-47.45,5.62-22,15.4-42.29,27.94-61.46,10.87-16.64,24.93-30.18,38.66-44,8-8,18.74-13.37,28.58-19.38a167.59,167.59,0,0,1,23.11-12.08c14-5.75,28.17-11,42.47-15.87C1576.91,1259.14,1601,1258.87,1624,1256.78Z"/><path class="cls-2" d="M911.55,1059.58q7.35.17,9.71,4.66a12.45,12.45,0,0,1,.52,10.06,25,25,0,0,1-7.17,10.47,24.28,24.28,0,0,1-13.38,6l-7.43,2a36.2,36.2,0,0,0-5.25,1.8,16.14,16.14,0,0,0-3.67,2.21,11.36,11.36,0,0,0-2.54,3q-2.45,3.6-4.55,6.87a22.19,22.19,0,0,0-3,7l-.7,3.59a15.34,15.34,0,0,0,8.13.9q4.82-.57,8.92-1.14a21,21,0,0,1,6.65-.08c1.69.32,2.13,1.69,1.31,4.08a40.23,40.23,0,0,1-5.68,10.47,22.16,22.16,0,0,1-11.11,7.85q-4.55.83-6.21,1.23c-1.11.27-2,.46-2.53.57a17.52,17.52,0,0,1-2.1.24c-.82.06-2.45.14-4.9.25-.82,1.31-2,3.27-3.41,5.89s-2.8,5.21-4,7.77a34.75,34.75,0,0,0-2.54,6.7c-.47,1.91-.18,2.86.87,2.86,3.38.33,6.24.57,8.57.74s4.55.24,6.65.24,4.29-.1,6.56-.32,5.1-.55,8.48-1q3.15,1,3.68,2.45a6.75,6.75,0,0,1,.35,3,8.77,8.77,0,0,0,.17,3c.23,1,1.34,1.8,3.32,2.45,1.05.33,1.37,1.29,1,2.86a14.11,14.11,0,0,1-2.89,5.16,36.75,36.75,0,0,1-5.86,5.56,27.47,27.47,0,0,1-7.78,4.25c-4.09,1-7.87,1.77-11.37,2.37a99,99,0,0,1-10.41,1.23A106.76,106.76,0,0,1,847,1197q-5.78-.26-12.94-1.07a43,43,0,0,1-4.55-1.06,23.36,23.36,0,0,1-5-2,12.28,12.28,0,0,1-3.93-3.44,8,8,0,0,1-1.4-5.39,148.7,148.7,0,0,1,7.26-46.61,195.73,195.73,0,0,1,8.83-22.41q5.25-11.28,11.89-23.71a14.83,14.83,0,0,0,1.67-5.89c.17-2.18.32-4.3.43-6.38a20.13,20.13,0,0,1,1.05-5.56,5.58,5.58,0,0,1,3.68-3.43,228.34,228.34,0,0,1,30.17-9A76.43,76.43,0,0,1,911.55,1059.58Z"/><path class="cls-2" d="M990.61,1066.13c.35.87.72,1.82,1.13,2.86a12.16,12.16,0,0,1,.79,3,5.54,5.54,0,0,1-.35,2.78,5.85,5.85,0,0,1-2.1,2.46c0,.11-.12.27-.35.49a43.57,43.57,0,0,1,.7,14.39q-.87,6.7-2.27,12.92,3.5-5.57,7.52-11.61t8.57-11.78a127.35,127.35,0,0,1,9.62-10.79,61.2,61.2,0,0,1,10.84-8.67,27.87,27.87,0,0,1,8.14-2.7,27.41,27.41,0,0,1,9.18-.24,13.45,13.45,0,0,1,7.26,3.27c1.92,1.74,2.77,4.36,2.53,7.85q-4.89,31.89-10.49,59.44a383,383,0,0,1-14.52,52.58v.33h-.17a11,11,0,0,1-3.85,5.07,19.66,19.66,0,0,1-6.56,3.19,33.25,33.25,0,0,1-7.7,1.22,23.1,23.1,0,0,1-7.17-.73,12.66,12.66,0,0,1-5.33-2.86,5.69,5.69,0,0,1-1.75-5.07l.17-3.77v-.32q.7-3.93.79-5.32c.06-.92.12-1.63.18-2.12s.14-1.12.26-1.88.46-2.29,1.05-4.58a28.44,28.44,0,0,1,.79-3c.4-1.36.78-2.8,1.13-4.33s.7-3,1.05-4.34.58-2.42.7-3.19a91.83,91.83,0,0,1-6,7.2,24.76,24.76,0,0,1-4.29,3.68,16.29,16.29,0,0,1-3.67,1.8q-1.75.57-4,1.23c-.7.11-1.78.24-3.24.4a30,30,0,0,1-4.46.17,20.78,20.78,0,0,1-4.2-.57,3.28,3.28,0,0,1-2.45-1.8,36.06,36.06,0,0,0-1.83-4.34,11.72,11.72,0,0,0-1-1.47,4.11,4.11,0,0,1-.62-1,21.23,21.23,0,0,1-.78-3q-1.58,6.39-3.06,11.29t-2.89,8.67a51.13,51.13,0,0,1-3.06,6.78,55.86,55.86,0,0,1-3.41,5.48,11.26,11.26,0,0,1-4.29,4.58,23.14,23.14,0,0,1-7,2.94,30.19,30.19,0,0,1-8,.9,26.77,26.77,0,0,1-7.52-1.14,12.65,12.65,0,0,1-5.51-3.27,7.5,7.5,0,0,1-1.92-5.81,87.46,87.46,0,0,1,2.53-14q2.19-8.91,5.07-19t5.86-19.63q3-9.55,5.08-15.94,1.39-4.24,3.49-9.57t4.73-10.63q2.63-5.31,5.42-10.14a54.1,54.1,0,0,1,5.77-8.26,21.22,21.22,0,0,1,7.87-8.66,29,29,0,0,1,19.94-3.93A25.08,25.08,0,0,1,990.61,1066.13Z"/><path class="cls-2" d="M1080.86,1193.36a14.22,14.22,0,0,1-3.33-.25,5.78,5.78,0,0,1-1.31-.49q-.43-.24-1-.57a6.12,6.12,0,0,0-2.27-.49,21.66,21.66,0,0,1-10,4.09,23,23,0,0,1-10.58-.82,18.53,18.53,0,0,1-8.4-5.56q-3.4-3.93-3.41-10.3a21,21,0,0,1,1.75-6.71,10.77,10.77,0,0,1-.53-3.6q2.28-11.45,5.25-24t7.17-24.78a222.49,222.49,0,0,1,9.53-23.47,109.27,109.27,0,0,1,12.34-20.2,43.16,43.16,0,0,1,12.68-11.2,53.76,53.76,0,0,1,15.56-6.13,51,51,0,0,1,16.27-1,40.66,40.66,0,0,1,14.78,4.25.4.4,0,0,1,.26.08c.06.06.2.08.44.08a36.16,36.16,0,0,1,7.69,5.73,50.85,50.85,0,0,1,5.86,6.13,31.12,31.12,0,0,1,4.38,7.2,22.56,22.56,0,0,1,1.83,8.09,21.06,21.06,0,0,1-1.57,8.67,45.18,45.18,0,0,1-5,8.83,70,70,0,0,1-6.91,8.18,80.3,80.3,0,0,1-8.3,7.36,82.51,82.51,0,0,1-9,6,19.76,19.76,0,0,0,4.63,2.37,43.67,43.67,0,0,1,5.69,2.53,10.91,10.91,0,0,1,5.77,7.93,27.36,27.36,0,0,1-.61,12.68,50.32,50.32,0,0,1-6.65,14.47,53.64,53.64,0,0,1-12.42,13.33,58.74,58.74,0,0,1-17.84,9.24A56.52,56.52,0,0,1,1080.86,1193.36Zm.17-17a9.16,9.16,0,0,1,3.59-.24,13.31,13.31,0,0,0,3.58,0,22.54,22.54,0,0,0,5.25-1.48,54.05,54.05,0,0,0,8.4-4.49,27.09,27.09,0,0,0,3.76-4.5,12.9,12.9,0,0,0,2.18-6q.18-4.41-1.75-5.81a8.67,8.67,0,0,0-5.16-1.39,33.11,33.11,0,0,0-7.17.9,42.74,42.74,0,0,1-7.6,1.07v.32c-.59,2.19-1.17,4.09-1.75,5.73s-1.11,3.24-1.58,4.82-.9,3.25-1.31,5-.79,3.76-1.14,6Zm25.19-81.93a40.47,40.47,0,0,0-4,4.58,23.34,23.34,0,0,0-2.63,4.49,40.28,40.28,0,0,0-1.83,5.07q-.79,2.7-1.49,6.3c2.45-1,4.87-1.82,7.26-2.54a70.8,70.8,0,0,0,6.82-2.37,40.41,40.41,0,0,0,6-3,17.7,17.7,0,0,0,4.9-4.5,19,19,0,0,0,2.1-3.19,4.18,4.18,0,0,0,.35-4,13.23,13.23,0,0,0-3-2.62,32.47,32.47,0,0,0-3.85-2.13,4.14,4.14,0,0,1-3.32.9,7.4,7.4,0,0,0-3.85.57A10.63,10.63,0,0,0,1106.22,1094.42Z"/><path class="cls-2" d="M1218.86,1064.16q3.32-1.31,7.17-3a20.27,20.27,0,0,1,7.34-1.88q9.63-.49,14.87,1.71a14.74,14.74,0,0,1,10,13.82,41,41,0,0,1-.52,8.51q-3.51,18.32-6.3,36.38t-6.82,36.39q-1.23,6.06-2.19,12.1t-2.19,12.11l-1,3.43c-.24,1.2-.47,2.31-.7,3.35s-.47,2.15-.7,3.35a15.41,15.41,0,0,1-6,3.93,21.08,21.08,0,0,1-7.43,1.31,28.5,28.5,0,0,1-7.7-1.06,17.87,17.87,0,0,1-6.38-3.19,4.25,4.25,0,0,1-1.84-2.78,11.13,11.13,0,0,1,0-3.36,26.58,26.58,0,0,1,.79-3.51,22.15,22.15,0,0,0,.7-3.11q.35-3.11.52-6.13c.12-2,.29-4.06.53-6.14q-5.61-5.38-10-5.56a11.26,11.26,0,0,0-7.87,2.78,30.49,30.49,0,0,0-6.48,8q-3,5.07-5.86,10.14a72.2,72.2,0,0,1-6.12,9.16,13.46,13.46,0,0,1-7.08,5.06,23.65,23.65,0,0,1-10.15.74,11,11,0,0,1-8-5.64c-1.64-1.42-2.36-3.76-2.19-7A45.23,45.23,0,0,1,1149,1174q1.49-5.16,3.24-9.65t2.45-6q5.76-12.75,12.41-25.51T1181.6,1108a243.72,243.72,0,0,1,17.14-23.22A183.93,183.93,0,0,1,1218.86,1064.16Zm-10.67,64.76q-1.41,3.6-3.94,9.33t-5.16,11.93l13.82-.49q1.39-10.45,3.15-20.77t3.32-20.6l-.52.65-6.13,8.67c-.69,1.85-1.42,3.74-2.18,5.64S1209,1127.07,1208.19,1128.92Zm-.18,21.43c.82,0,1.63,0,2.45-.08s1.63-.14,2.45-.25v-.16l-4.2.32C1207.43,1150.29,1207.19,1150.35,1208,1150.35Z"/><path class="cls-2" d="M1325.72,1075q-6.12,17.82-11.28,32.21t-9.44,26.5q-4.29,12.11-8,22.32t-6.82,19.54q-1,6.38-4.29,9.9a21.67,21.67,0,0,1-7.08,5.23,25.74,25.74,0,0,1-7.52,2.13c-2.45.27-4.26.41-5.42.41q-8.06,0-11.9-1.56c-2.56-1-4.23-2.53-5-4.5a11.29,11.29,0,0,1,0-7.11q1.13-4.17,3.06-9.4,3.67-9.33,8-21.75t9-25.27q4.73-12.84,9.45-24.53a177.57,177.57,0,0,1,9.09-19.54c1.75-3.06,3.5-5.1,5.25-6.14a23.34,23.34,0,0,1,5.07-2.29,33.65,33.65,0,0,0,4.55-1.71q2.1-1,3.67-4.75a9.74,9.74,0,0,1,6.21-5.56,13.48,13.48,0,0,1,8.4-.24,9.8,9.8,0,0,1,6,5.23Q1328.7,1068.09,1325.72,1075Z"/><path class="cls-2" d="M1368.75,1162.29a86.74,86.74,0,0,0-6.3,9.07q-2.79,4.67-5.68,9.08a78.82,78.82,0,0,1-6.12,8.18,32.37,32.37,0,0,1-7.44,6.37,40,40,0,0,1-11.28,3.44,30.34,30.34,0,0,1-12-.82,10.3,10.3,0,0,1-4.37-3.76,10.49,10.49,0,0,1-1.57-4.91,18.17,18.17,0,0,1,.43-5.31,29.47,29.47,0,0,1,1.58-5,24.17,24.17,0,0,1,2.1-4,8.5,8.5,0,0,1,1.83-2.2,5.31,5.31,0,0,1,1-.82c.06,0,.12-.06.18-.17l.52-.9c.29-.49,1-1.52,2.1-3.1s2.74-3.87,4.9-6.87,5.16-7,9-12l3.67-4c1.75-1.9,3.59-4,5.51-6.13s3.76-4.22,5.51-6.13,3-3.19,3.67-3.85c-2.1-4.58-3.87-8.55-5.33-11.94a67.07,67.07,0,0,1-3.5-10.22,84.07,84.07,0,0,1-2-11.36q-.71-6.21-1.05-15.21a6.15,6.15,0,0,1,.09-5.07,19.4,19.4,0,0,1,3.41-5.4,23.79,23.79,0,0,1,5.42-4.58,23.15,23.15,0,0,1,6.21-2.78,10.15,10.15,0,0,1,5.68,0,6.14,6.14,0,0,1,3.85,3.93,116.19,116.19,0,0,1,5.16,17.25q1.85,8.6,3.94,17.91a35.3,35.3,0,0,0,7.43-7.85,84.9,84.9,0,0,0,5.16-8.67q2.26-4.41,4.37-8.75a49.55,49.55,0,0,1,5-8.18,30.93,30.93,0,0,1,7.08-6.78,34.64,34.64,0,0,1,10.84-4.74,43.91,43.91,0,0,1,10.06-1.23,27.69,27.69,0,0,1,10,1.55,14.18,14.18,0,0,1,6.91,5.07q2.44,3.43.87,9.16a54.44,54.44,0,0,1-7.17,10.63q-4.54,5.4-9.79,10.71t-10.5,10.39q-5.23,5.07-9.44,9.65a107.87,107.87,0,0,0-6.82,8.75c-2.1,3-4.32,6-6.65,8.91a103.33,103.33,0,0,0,4.46,13.57q2.89,7.2,6,14.72t5.33,15a59.89,59.89,0,0,1,2.63,14.48,13.8,13.8,0,0,0-4.81,2.37,25.74,25.74,0,0,0-2.89,2.78c-.82.92-1.57,1.82-2.27,2.7a7.15,7.15,0,0,1-2.71,2,12.51,12.51,0,0,1-4.55.82,35,35,0,0,1-7.61-.9,26.39,26.39,0,0,1-6.47-6.21,67.21,67.21,0,0,1-5.51-8.59,74.12,74.12,0,0,1-4.46-9.89Q1370.32,1167.2,1368.75,1162.29Z"/><path class="cls-2" d="M1495.21,1064.16q3.32-1.31,7.17-3a20.27,20.27,0,0,1,7.34-1.88q9.62-.49,14.87,1.71t7.52,5.81a15.91,15.91,0,0,1,2.45,8,41,41,0,0,1-.52,8.51q-3.51,18.32-6.3,36.38t-6.82,36.39q-1.23,6.06-2.19,12.1t-2.19,12.11l-1,3.43c-.24,1.2-.47,2.31-.7,3.35s-.47,2.15-.7,3.35a15.41,15.41,0,0,1-5.95,3.93,21.08,21.08,0,0,1-7.43,1.31,28.5,28.5,0,0,1-7.7-1.06,17.79,17.79,0,0,1-6.38-3.19,4.25,4.25,0,0,1-1.84-2.78,10.52,10.52,0,0,1,0-3.36,26.58,26.58,0,0,1,.79-3.51,22.15,22.15,0,0,0,.7-3.11q.35-3.11.52-6.13c.12-2,.29-4.06.53-6.14q-5.61-5.38-10-5.56a11.26,11.26,0,0,0-7.87,2.78,30.69,30.69,0,0,0-6.48,8q-3,5.07-5.86,10.14a72.2,72.2,0,0,1-6.12,9.16A13.46,13.46,0,0,1,1444,1196a23.66,23.66,0,0,1-10.15.74,11,11,0,0,1-8-5.64c-1.64-1.42-2.36-3.76-2.19-7a45.23,45.23,0,0,1,1.75-10.06q1.49-5.16,3.24-9.65t2.45-6q5.76-12.75,12.41-25.51T1458,1108a243.72,243.72,0,0,1,17.14-23.22A183.93,183.93,0,0,1,1495.21,1064.16Zm-10.67,64.76q-1.41,3.6-3.94,9.33t-5.16,11.93l13.82-.49q1.4-10.45,3.15-20.77t3.32-20.6l-.52.65-6.12,8.67c-.71,1.85-1.43,3.74-2.19,5.64S1485.35,1127.07,1484.54,1128.92Zm-.18,21.43c.82,0,1.63,0,2.45-.08s1.63-.14,2.45-.25v-.16l-4.2.32C1483.78,1150.29,1483.54,1150.35,1484.36,1150.35Z"/><path class="cls-2" d="M1637.58,1134a69,69,0,0,1-5.68,13.9,93.06,93.06,0,0,1-20.38,25.68,72.11,72.11,0,0,1-13.38,9.4,57.07,57.07,0,0,1-14.61,5.56,38.53,38.53,0,0,1-15.21.41,14.53,14.53,0,0,1-9.36,8.1,22.33,22.33,0,0,1-12.24,0,23.4,23.4,0,0,1-10.59-6.46,16,16,0,0,1-4.54-11.45,131.73,131.73,0,0,1,1.22-18.48,155.36,155.36,0,0,1,3.24-16.6,157.87,157.87,0,0,1,4.72-15.37q2.71-7.44,5.86-14.8,2.79-6.21,5.25-12.68t4.54-13.82a42.49,42.49,0,0,0,1.14-5.23q.43-2.78,1-5.48a39.5,39.5,0,0,1,1.57-5.23,13,13,0,0,1,2.89-4.5,10.52,10.52,0,0,1,2.89-2.45c1-.54,2.12-1.09,3.41-1.64a33,33,0,0,1,16.61-3,48.2,48.2,0,0,1,15.66,4.09,74.22,74.22,0,0,1,14.08,8.34q6.65,5,11.89,9.73a37.56,37.56,0,0,1,12.68,23.38,53.61,53.61,0,0,1,.18,13.66A101.69,101.69,0,0,1,1637.58,1134Zm-65.94,34.18c1.16-.54,2.36-1.14,3.59-1.8s2.47-1.36,3.76-2.12a76.28,76.28,0,0,0,8.83-6.22q3.77-3.1,8.66-6.86a46.49,46.49,0,0,0,6.21-7.12,33.56,33.56,0,0,0,4.28-8.42q4-10.8,2.1-19.14t-11.37-14.22q-1.92-1.3-3.93-2.54l-3.94-2.37a47.87,47.87,0,0,0-3.59,11,78,78,0,0,1-3.06,11.12l-4.72,14.39-3.85,15.54a51.25,51.25,0,0,1-1,6.29q-.69,3-1.22,6.3Z"/><path class="cls-2" d="M1681.48,1070.21a42.52,42.52,0,0,1,16.79-7.76,32.05,32.05,0,0,1,17.49.73,16.14,16.14,0,0,1,7.87-4.41,22.3,22.3,0,0,1,8.92-.17,24.75,24.75,0,0,1,8.75,3.44,28.9,28.9,0,0,1,7.34,6.54,25.93,25.93,0,0,0,1.49,3.43q1.14,2.29,2.19,5.07a48.29,48.29,0,0,1,4.11,20.61,104.06,104.06,0,0,1-2.89,23.22,138.2,138.2,0,0,1-7.61,22.9,155.22,155.22,0,0,1-10,19.62A110.48,110.48,0,0,1,1725,1178a59.82,59.82,0,0,1-14.17,11.93,47.74,47.74,0,0,1-11.37,5.89,42.56,42.56,0,0,1-8.74,1.88,61.15,61.15,0,0,1-10,.33,44.65,44.65,0,0,1-9.8-1.55,32.43,32.43,0,0,1-8.39-3.6,35.17,35.17,0,0,1-13.21-10.14,37.39,37.39,0,0,1-6.73-13.66,52.33,52.33,0,0,1-1.49-15.86,94.83,94.83,0,0,1,2.45-16.93,143.75,143.75,0,0,1,5-16.6q3-8.09,6.29-15.12,1.93-3.93,4.9-8.75t6.56-9.57q3.59-4.74,7.43-8.91A61.66,61.66,0,0,1,1681.48,1070.21Zm8.75,102.54a81.87,81.87,0,0,0,10.58-16.11,118.73,118.73,0,0,0,8-19.87,128.21,128.21,0,0,0,4.46-21.17,93.81,93.81,0,0,0,.43-20c-1.28,1.53-2.48,3-3.58,4.42s-2.19,2.83-3.24,4.25q-4.9,6.38-10,13.57t-9.44,14.8a119.35,119.35,0,0,0-7.53,15.54,61.28,61.28,0,0,0-4,15.94,1.09,1.09,0,0,1-.09.5,1.06,1.06,0,0,0-.08.49l.35,1.79a17.55,17.55,0,0,0,.78,2.46,24.51,24.51,0,0,0,1.58,3.35,17.92,17.92,0,0,0,2.27,3.19,8.11,8.11,0,0,0,2.89,2.13c1.16-.88,2.33-1.69,3.5-2.46A15,15,0,0,0,1690.23,1172.75Z"/><path class="cls-2" d="M1782.75,1186a8.94,8.94,0,0,1-3.85,5.4,17.69,17.69,0,0,1-7,2.61,30.92,30.92,0,0,1-8.4.17,29.3,29.3,0,0,1-8-2,15.47,15.47,0,0,1-5.77-3.92,6.63,6.63,0,0,1-1.66-5.73,32.74,32.74,0,0,1,.87-9.24,147,147,0,0,1,3.76-14.3q2.54-8.19,6-17.67t7.69-19.21q4.2-9.73,8.75-19t9.27-16.85a105.54,105.54,0,0,1,9.27-12.92q4.55-5.31,8.57-7.27a54.61,54.61,0,0,1,6.65-2.46c2.79-.87,5.71-1.69,8.74-2.45s6-1.42,8.83-2,5.16-.93,6.91-1.15q9.62-1,16.09,1.72a22.14,22.14,0,0,1,10.06,7.93,27.35,27.35,0,0,1,4.46,12.35,49.72,49.72,0,0,1-.52,14.88,64.92,64.92,0,0,1-5.08,15.7,69.42,69.42,0,0,1-9.27,14.8,64.88,64.88,0,0,1-12.85,12,49,49,0,0,1-15.83,7.44l1.75,2.78q2.27,3.27,5.51,7.2c2.15,2.61,4.31,5.29,6.47,8s4.11,5.45,5.86,8.18a36,36,0,0,1,3.85,7.68,11,11,0,0,1,.35,6.63c-.59,2-2.16,3.68-4.73,5a15,15,0,0,1-5.51,2.13,6.53,6.53,0,0,1-3.49-.57,13.41,13.41,0,0,1-2.89-2,11.21,11.21,0,0,0-3.85-2,17,17,0,0,1-7.08.66,12.19,12.19,0,0,1-5-2,14.71,14.71,0,0,1-3.58-3.59,42.51,42.51,0,0,1-2.71-4.42,49.27,49.27,0,0,1-3-5.81c-.81-1.9-1.66-3.76-2.53-5.56a53.79,53.79,0,0,0-3-5.31,34.77,34.77,0,0,0-4.11-5.23q-1.92,4.41-3.14,7.93l-2.37,6.78c-.76,2.19-1.57,4.42-2.44,6.71s-1.9,4.91-3.07,7.85Zm35.33-95.18q-2.44,5.07-3.41,7.2c-.64,1.41-1.2,2.67-1.66,3.76s-1,2.37-1.66,3.84-1.72,3.9-3.24,7.28c-.12.87-.23,1.71-.35,2.53a22.93,22.93,0,0,1-.52,2.54l2.45-2.29,3-1.31q3.15-1.63,5.77-2.94a20,20,0,0,0,4.72-3.28,20.71,20.71,0,0,0,3.76-4.82,42.74,42.74,0,0,0,3.24-7.44,9.22,9.22,0,0,1,.61-3.27,17.54,17.54,0,0,0,.88-3.19,5.25,5.25,0,0,0-.27-2.86c-.35-.87-1.34-1.64-3-2.29a5.52,5.52,0,0,0-3.41.82,16.82,16.82,0,0,0-3,2.2q-1.32,1.23-2.37,2.37C1819,1090.44,1818.43,1090.82,1818.08,1090.82Z"/><path class="cls-2" d="M1923.55,1064.16q3.32-1.31,7.17-3a20.27,20.27,0,0,1,7.34-1.88q9.63-.49,14.87,1.71t7.52,5.81a15.91,15.91,0,0,1,2.45,8,41,41,0,0,1-.52,8.51q-3.51,18.32-6.3,36.38t-6.82,36.39q-1.23,6.06-2.19,12.1t-2.18,12.11l-1.05,3.43c-.24,1.2-.47,2.31-.7,3.35s-.47,2.15-.7,3.35a15.41,15.41,0,0,1-6,3.93,21.08,21.08,0,0,1-7.43,1.31,28.5,28.5,0,0,1-7.7-1.06,17.87,17.87,0,0,1-6.38-3.19,4.29,4.29,0,0,1-1.84-2.78,11.13,11.13,0,0,1,0-3.36,28.28,28.28,0,0,1,.79-3.51,22.15,22.15,0,0,0,.7-3.11q.34-3.11.52-6.13c.12-2,.29-4.06.53-6.14q-5.61-5.38-10-5.56a11.26,11.26,0,0,0-7.87,2.78,30.69,30.69,0,0,0-6.48,8q-3,5.07-5.86,10.14a72.2,72.2,0,0,1-6.12,9.16,13.46,13.46,0,0,1-7.08,5.06,23.66,23.66,0,0,1-10.15.74,11,11,0,0,1-8-5.64c-1.64-1.42-2.36-3.76-2.19-7a45.23,45.23,0,0,1,1.75-10.06q1.49-5.16,3.24-9.65t2.45-6q5.76-12.75,12.41-25.51t14.52-24.86a243.72,243.72,0,0,1,17.14-23.22A183.93,183.93,0,0,1,1923.55,1064.16Zm-10.67,64.76q-1.41,3.6-3.94,9.33t-5.16,11.93l13.82-.49q1.39-10.45,3.15-20.77t3.32-20.6l-.52.65-6.12,8.67c-.7,1.85-1.43,3.74-2.19,5.64S1913.69,1127.07,1912.88,1128.92Zm-.18,21.43c.82,0,1.63,0,2.45-.08s1.63-.14,2.45-.25v-.16l-4.2.32C1912.12,1150.29,1911.89,1150.35,1912.7,1150.35Z"/><path class="cls-2" d="M1991.59,1195a47.77,47.77,0,0,1-16.36-2,33.33,33.33,0,0,1-12.07-6.46,17.74,17.74,0,0,1-5.86-9.57,15.26,15.26,0,0,1,2.1-11.2,9.79,9.79,0,0,1,4.81-4,17.22,17.22,0,0,1,6.3-1,43.44,43.44,0,0,1,7.17.82c2.51.49,5,1,7.52,1.39a57.76,57.76,0,0,0,7.17.82,14.4,14.4,0,0,0,6.21-1,43.6,43.6,0,0,0,10.32-4.26c2.21-1.41,3.56-2.83,4-4.25a4.34,4.34,0,0,0-.7-4.09,21.28,21.28,0,0,0-3.76-3.92q-2.36-2-5.16-3.93a33.15,33.15,0,0,1-4.72-3.92,48.32,48.32,0,0,1-13.73-14q-5-7.93-3.93-18.89a48.66,48.66,0,0,1,3.15-13.82,44.6,44.6,0,0,1,6-10.79,43.21,43.21,0,0,1,8-8,56.26,56.26,0,0,1,8.92-5.64q4.73-2.3,9.79-4.33a63.82,63.82,0,0,1,10.85-3.27,67,67,0,0,1,12.5-1.39,78,78,0,0,1,14.61,1.14,21.68,21.68,0,0,1,8.39,3.11c2.33,1.53,4.66,3.1,7,4.74,2.21,2.07,3.5,4.12,3.85,6.13a8.61,8.61,0,0,1-.79,5.56,10.62,10.62,0,0,1-3.94,4.17,11.64,11.64,0,0,1-5.59,1.8,12.82,12.82,0,0,1-.18,3.6,6.18,6.18,0,0,1-2,3.35,13.87,13.87,0,0,1-4.9,2.7,41.64,41.64,0,0,1-8.65,1.8,95.32,95.32,0,0,0-11.55-.25,20.32,20.32,0,0,0-7.87,1.72,8,8,0,0,0-4.11,4.5q-1.14,3-.26,8.26A8,8,0,0,0,2027,1115c1.69,1.53,3.68,3.17,6,4.91s4.66,3.71,7.17,5.89a36.37,36.37,0,0,1,6.56,7.52,28,28,0,0,1,3.85,21.91,48.68,48.68,0,0,1-5.34,13.17,46.23,46.23,0,0,1-11.1,12.84,61.76,61.76,0,0,1-17.67,9.81Q2005.94,1195,1991.59,1195Z"/><path class="cls-2" d="M1340.49,1290.05a72.37,72.37,0,0,1-5.71,14.36,96.14,96.14,0,0,1-20.46,26.52,72.9,72.9,0,0,1-13.44,9.71,56.58,56.58,0,0,1-14.67,5.74,37.79,37.79,0,0,1-15.28.42q-3.17,6.59-9.4,8.36a21.6,21.6,0,0,1-12.29,0,23.23,23.23,0,0,1-10.63-6.67,16.69,16.69,0,0,1-4.57-11.82,140.4,140.4,0,0,1,1.23-19.09,165.33,165.33,0,0,1,3.25-17.14q2-8.19,4.75-15.88t5.88-15.28q2.8-6.42,5.27-13.09t4.57-14.28a50.27,50.27,0,0,0,1.14-5.4q.43-2.87,1-5.66a41.52,41.52,0,0,1,1.58-5.4,13.26,13.26,0,0,1,2.9-4.65,10.74,10.74,0,0,1,2.9-2.53,36.42,36.42,0,0,1,3.42-1.69,32.44,32.44,0,0,1,16.69-3.13,47.44,47.44,0,0,1,15.72,4.23,74.37,74.37,0,0,1,14.14,8.61q6.67,5.16,12,10a40.53,40.53,0,0,1,8.78,11.4,41.58,41.58,0,0,1,4,12.75,56.22,56.22,0,0,1,.18,14.11A106.9,106.9,0,0,1,1340.49,1290.05Zm-66.22,35.3q1.76-.84,3.6-1.86t3.78-2.19a78.26,78.26,0,0,0,8.87-6.42q3.76-3.21,8.69-7.09a47.88,47.88,0,0,0,6.24-7.35,34.94,34.94,0,0,0,4.3-8.7q4-11.15,2.11-19.76t-11.42-14.7q-1.93-1.35-4-2.61c-1.35-.85-2.67-1.66-4-2.45a50,50,0,0,0-3.6,11.31,84.06,84.06,0,0,1-3.08,11.49l-4.74,14.86-3.87,16a54.77,54.77,0,0,1-1,6.5c-.47,2.09-.88,4.25-1.23,6.5Z"/><path class="cls-2" d="M1383.35,1224.18a42.15,42.15,0,0,1,16.86-8,31.32,31.32,0,0,1,17.57.76,16,16,0,0,1,7.9-4.56,21.62,21.62,0,0,1,9-.17,24.44,24.44,0,0,1,8.79,3.54,29.91,29.91,0,0,1,7.37,6.76,26.53,26.53,0,0,0,1.5,3.55c.76,1.57,1.49,3.32,2.19,5.23a50.78,50.78,0,0,1,4.13,21.28,110.25,110.25,0,0,1-2.9,24,145,145,0,0,1-7.64,23.65,160.57,160.57,0,0,1-10.1,20.26,114.59,114.59,0,0,1-10.89,15,60.74,60.74,0,0,1-14.23,12.33,47.85,47.85,0,0,1-11.42,6.08,42,42,0,0,1-8.78,1.94,59.45,59.45,0,0,1-10,.34,43.79,43.79,0,0,1-9.84-1.61,31.73,31.73,0,0,1-8.43-3.71,35.46,35.46,0,0,1-13.26-10.48,39,39,0,0,1-6.77-14.1,55.42,55.42,0,0,1-1.49-16.38,99.8,99.8,0,0,1,2.46-17.48,149.57,149.57,0,0,1,5-17.15q3-8.36,6.32-15.62,1.93-4.05,4.92-9t6.59-9.88q3.58-4.89,7.46-9.2A61.58,61.58,0,0,1,1383.35,1224.18Zm8.78,105.9a83.72,83.72,0,0,0,10.63-16.64,123.42,123.42,0,0,0,8-20.52,134.08,134.08,0,0,0,4.48-21.87,98.64,98.64,0,0,0,.44-20.69q-1.93,2.37-3.6,4.56c-1.11,1.46-2.2,2.93-3.25,4.39q-4.92,6.59-10,14t-9.49,15.29a124.89,124.89,0,0,0-7.55,16,64.17,64.17,0,0,0-4,16.47,1.11,1.11,0,0,1-.09.51,1.09,1.09,0,0,0-.09.5l.35,1.86a20.15,20.15,0,0,0,.79,2.53,25.15,25.15,0,0,0,1.59,3.47,18.22,18.22,0,0,0,2.28,3.29,8.05,8.05,0,0,0,2.9,2.2q1.76-1.35,3.51-2.54A14.76,14.76,0,0,0,1392.13,1330.08Z"/><path d="M1680.49,1644.31a17.62,17.62,0,0,1-4-.3,6.83,6.83,0,0,1-1.57-.61c-.35-.19-.73-.43-1.15-.69a7.1,7.1,0,0,0-2.72-.6,25.45,25.45,0,0,1-11.92,5,26.79,26.79,0,0,1-12.65-1,22.11,22.11,0,0,1-10-6.79q-4.08-4.8-4.08-12.6a26.19,26.19,0,0,1,2.09-8.19,13.43,13.43,0,0,1-.63-4.4q2.72-14,6.28-29.29t8.57-30.28a272.39,272.39,0,0,1,11.39-28.69,134.51,134.51,0,0,1,14.75-24.69,52.07,52.07,0,0,1,15.15-13.69,63.5,63.5,0,0,1,18.61-7.49,59.68,59.68,0,0,1,19.45-1.2,47.81,47.81,0,0,1,17.67,5.19.46.46,0,0,1,.31.1c.07.07.24.1.53.1a43.52,43.52,0,0,1,9.2,7,61.68,61.68,0,0,1,7,7.5,38.17,38.17,0,0,1,5.23,8.79,28.19,28.19,0,0,1,2.19,9.9,26.28,26.28,0,0,1-1.88,10.59,55.15,55.15,0,0,1-6,10.8,86.12,86.12,0,0,1-8.26,10,98.14,98.14,0,0,1-20.7,16.39,23.36,23.36,0,0,0,5.54,2.9,52.18,52.18,0,0,1,6.8,3.1q5.43,2.8,6.9,9.7a34.09,34.09,0,0,1-.73,15.49,62.38,62.38,0,0,1-8,17.69,65.09,65.09,0,0,1-14.84,16.29,70,70,0,0,1-21.33,11.3A66.11,66.11,0,0,1,1680.49,1644.31Zm.21-20.79a10.74,10.74,0,0,1,4.29-.3,16,16,0,0,0,4.28,0,26.07,26.07,0,0,0,6.28-1.8,64.62,64.62,0,0,0,10-5.5,33.08,33.08,0,0,0,4.5-5.5,16,16,0,0,0,2.61-7.3c.14-3.59-.56-6-2.09-7.09a10.17,10.17,0,0,0-6.17-1.7,38.12,38.12,0,0,0-8.57,1.1,50,50,0,0,1-9.1,1.3v.4q-1,4-2.09,7c-.7,2-1.32,4-1.88,5.9s-1.08,4-1.57,6.1-.94,4.6-1.36,7.4Zm30.11-100.16a52.11,52.11,0,0,0-4.81,5.6,29.78,29.78,0,0,0-3.14,5.5,51.78,51.78,0,0,0-2.19,6.2c-.63,2.19-1.22,4.76-1.78,7.69q4.39-1.8,8.68-3.1c2.85-.86,5.57-1.83,8.15-2.89a48.47,48.47,0,0,0,7.22-3.7,21.31,21.31,0,0,0,5.85-5.5,22.91,22.91,0,0,0,2.51-3.9,5.19,5.19,0,0,0,.42-4.9,16.36,16.36,0,0,0-3.55-3.2,37.82,37.82,0,0,0-4.6-2.59,5,5,0,0,1-4,1.1,8.55,8.55,0,0,0-4.6.7A12.67,12.67,0,0,0,1710.81,1523.36Z"/><path d="M1872.23,1480.78c5.86.14,9.72,2,11.61,5.7s2.09,7.77.62,12.3a30.64,30.64,0,0,1-8.57,12.79,28.72,28.72,0,0,1-16,7.4l-8.88,2.39a41.94,41.94,0,0,0-6.28,2.2,19.34,19.34,0,0,0-4.39,2.7,13.85,13.85,0,0,0-3,3.7q-2.93,4.39-5.43,8.4a27.43,27.43,0,0,0-3.56,8.59l-.84,4.4a18.06,18.06,0,0,0,9.73,1.1q5.74-.71,10.66-1.4a24.48,24.48,0,0,1,8-.1q3,.6,1.57,5a49.74,49.74,0,0,1-6.8,12.79,26.52,26.52,0,0,1-13.28,9.6c-3.62.67-6.1,1.17-7.42,1.5s-2.34.56-3,.7a23.13,23.13,0,0,1-2.51.3l-5.86.3c-1,1.6-2.33,4-4.07,7.19s-3.35,6.37-4.81,9.5a44,44,0,0,0-3,8.19c-.55,2.34-.2,3.5,1,3.5q6.06.6,10.25.9t7.94.3q3.76,0,7.84-.4t10.14-1.2q3.76,1.2,4.4,3a8.44,8.44,0,0,1,.41,3.7,10.89,10.89,0,0,0,.21,3.7q.42,1.8,4,3c1.26.4,1.64,1.56,1.16,3.49a17.2,17.2,0,0,1-3.46,6.3,43.38,43.38,0,0,1-7,6.8,32.85,32.85,0,0,1-9.3,5.2c-4.89,1.19-9.41,2.16-13.6,2.89a116.81,116.81,0,0,1-12.44,1.5,120.2,120.2,0,0,1-13.07.1q-6.9-.3-15.47-1.3a52.27,52.27,0,0,1-5.44-1.3,27.82,27.82,0,0,1-6-2.49,14.69,14.69,0,0,1-4.7-4.2,10.08,10.08,0,0,1-1.67-6.6,184.72,184.72,0,0,1,8.68-57,241.32,241.32,0,0,1,10.55-27.39q6.29-13.79,14.22-29a18.4,18.4,0,0,0,2-7.2c.21-2.67.38-5.26.52-7.8a24.63,24.63,0,0,1,1.26-6.79,6.72,6.72,0,0,1,4.39-4.2,267.57,267.57,0,0,1,36.07-11Q1857.18,1478.59,1872.23,1480.78Z"/><path d="M1970.93,1488.78l1.35,3.5a15.17,15.17,0,0,1,1,3.7,7.07,7.07,0,0,1-.42,3.4,7.15,7.15,0,0,1-2.51,3q0,.21-.42.6a54.76,54.76,0,0,1,.84,17.6q-1,8.19-2.72,15.79,4.17-6.79,9-14.2t10.24-14.39a153.75,153.75,0,0,1,11.51-13.19,73.47,73.47,0,0,1,13-10.6,32.88,32.88,0,0,1,9.72-3.29,31.88,31.88,0,0,1,11-.3,16,16,0,0,1,8.68,4c2.3,2.14,3.31,5.33,3,9.6q-5.85,39-12.55,72.66a477.32,477.32,0,0,1-17.35,64.27v.4H2014a13.38,13.38,0,0,1-4.6,6.2,23.25,23.25,0,0,1-7.84,3.9,39.73,39.73,0,0,1-9.2,1.5,27.28,27.28,0,0,1-8.58-.9,15,15,0,0,1-6.37-3.5,7,7,0,0,1-2.09-6.2l.21-4.6v-.4c.55-3.2.87-5.36.94-6.49s.13-2,.21-2.6.17-1.37.31-2.3.55-2.8,1.25-5.6a35.55,35.55,0,0,1,1-3.7c.48-1.66.94-3.43,1.35-5.29s.84-3.63,1.26-5.3.69-3,.84-3.9a113.2,113.2,0,0,1-7.22,8.8,29.46,29.46,0,0,1-5.12,4.49,19.36,19.36,0,0,1-4.39,2.2q-2.1.7-4.81,1.5c-.84.14-2.13.3-3.87.5a34.91,34.91,0,0,1-5.33.2,22.77,22.77,0,0,1-5-.7,3.9,3.9,0,0,1-2.93-2.2,43.67,43.67,0,0,0-2.19-5.29,13.87,13.87,0,0,0-1.15-1.8,5,5,0,0,1-.74-1.2,27,27,0,0,1-.94-3.7q-1.87,7.8-3.66,13.79t-3.45,10.6a61.7,61.7,0,0,1-3.66,8.29,67.39,67.39,0,0,1-4.07,6.7,13.63,13.63,0,0,1-5.13,5.6,27.47,27.47,0,0,1-8.36,3.6,36.07,36.07,0,0,1-9.62,1.1,32,32,0,0,1-9-1.4,15.07,15.07,0,0,1-6.59-4,9.33,9.33,0,0,1-2.3-7.1,109.56,109.56,0,0,1,3-17.09q2.61-10.89,6.06-23.19t7-24q3.55-11.68,6.07-19.49,1.67-5.19,4.18-11.69t5.65-13q3.14-6.5,6.48-12.39a66.19,66.19,0,0,1,6.9-10.1,25.69,25.69,0,0,1,9.41-10.59,34.51,34.51,0,0,1,12-4.7,33.82,33.82,0,0,1,11.82-.1A29.56,29.56,0,0,1,1970.93,1488.78Z"/></svg>