<svg id="Camada_1" data-name="Camada 1" xmlns="http://www.w3.org/2000/svg" viewBox="0 0 2000 2000"><path d="M395.81,659.4H525.92c.63-11.67,1.27-23.59,2-36.54h41.47V535.11H528.51v-44h41.1V403.74H528.27V445c-14.83,3.54-28.93.82-43.9,2.16V366.52H651.15V235.14h-35.6v-87h36.07v41H783.07V147.93h44v42.55H871v43.77h81.28V278H871v43.76H784v-44h42.43V235.58H696.75v86.94h41.94v44.09H695.92v124H651.75c-.41-28.68-.41-57.37-.41-86.2h-36.7c0,15.71-.32,30.1.09,44.48.39,13.95-1.79,28.15,1.46,41.72h35.56c.4,28.84.4,57.67.4,86.71l-37.51,2V659.4H572.27v88.1h80.31V790h43.34c0-29.39,0-58.12.44-87.29,13.72-.44,27.89-.44,42-.44V660.07H696.81c0,14.77,0,28.93-.45,42.65-27,.45-53.47.45-81.72.45V659.4H653.1V621.13h85.27V577.64H695.92V490.59h87.53V746.93H739.24c1.39,16-1.25,30.1,1.92,43.77h42.29v43.91H826v81.56H695.39v173.77h-44V877.37H570.87c0-15.47.27-29.9-.07-44.31-.35-14.16,1.54-28.51-1.29-42.36H483.34c0-14.59,0-29.18.45-44.21,13.72-.45,27.88-.45,42-.45v-42.2H484.23c0,14.76,0,28.93-.44,42.65-15,.44-29.63.44-44.21.44V702H395.81ZM739.16,835.51H697.52v41.68h41.64Z"/><path d="M1464.94,578.12h43.63c0,13,.11,26.06.13,39.17,0,13.37,0,26.75,0,41.1h86V622.64h-40.83V535.18h41.91v42.24h44V491.2h36.65v85.72c44.08,2.67,87.18.4,132.39,1.43v-44h42.81V491.53h37.06V621.31H1641.34v37.74h167.2V834.32h44v43.91h-131.3v37.51h-43.76V833.93c14.3-.54,28.6-.54,43.88-.54V790.45h42.91v-44h-43.69V704.64H1641V790l36.55,1.75v42.21c-12.2.53-24.4.53-38.65.53v44.81h-85.64c-.67,12.9-1.3,24.8-1.91,36.47h-42.61c0-27.09,0-54.18.39-81.72,28.35-.45,57.1-.45,85.8-.45V746.38h-43V703.94H1509.5c0,44,0,87.27-.4,130.08-15,.44-29.57.44-44.64,0-.48-13.8-.48-28-.48-42H1384.4v41.6c27.31,0,53.93,0,80.06.42.48,14.71.48,29,.48,44.18-56.08,0-110,0-164,0a5.48,5.48,0,0,1-2.69-1,14.87,14.87,0,0,1-2.17-1.87V834.46h43.77V746.93h125c0-16.44.28-30.87-.08-45.28-.35-14.12,1.61-28.45-1.34-42.25h-79.86V621.89c15.47,0,28.85.24,42.21-.07,13.07-.3,26.35,1.53,39.07-1.38Z"/><path d="M1721.28,1728.53H1508.82v43.77h-43.88v-42.69h-43.76v-82.36h87.53c0-16.44.27-30.86-.08-45.26-.35-14.13,1.58-28.46-1.31-42.27h-42.38v-44.85h44.76V1430h43.81v42.54c15-1.27,29.06,1.31,41.71-1.57v-81.11h-41.69V1346h42.71v-42.61h80v-86.83c-27.47-2.3-54,1.44-80-2.11v-42.35h81.42v-80h44.09v80.66h42.35v44.12h-42.82v130.31h-45v44.95h-35.68V1516h168.19v43.76h-86v86.51h43.33v-42.74h42.67v43.76h43.77v34.64a16.69,16.69,0,0,1-2.16,1.86,5.65,5.65,0,0,1-2.69,1c-41.44,0-82.88,0-126.45,0ZM1677,1560.79H1552.29c.93,42.06-1.22,83.08,1.27,122.91H1677Z"/><path d="M270.77,1259.62V1217h42.72v-81.29H358.3v-44.88h81.28V1047H570.87v44.89H527.11v42.64H483.34v37.52c-14.59,0-29.18,0-44.22-.44-.45-11.66-.45-23.74-.45-35.75H396.5v35.31c14.77,0,28.92,0,42.62.44.46,14.71.46,29,.46,45.33H396.92v41.08H526.07v-43.33H483.34v-42.64h43.77v-37.52c35.18,0,70.36-.18,105.53,0,35.71.24,71.47-1,105.92.73v38H695.92v42.49H652.15v43.77c-12.5,0-25,0-37.92-.49-.41-28.21-.41-56.9-.41-85.72H571.47v85.24c14.73,0,28.95,0,42.76.48.41,15.07.41,29.66.41,44.25-36.22,0-72.44-.22-108.65.06-36.75.3-73.56-1.28-110.18,1.08v42.63H314.53v-87.53Z"/><path d="M996,278V364c13.61,3.41,27.69.57,42.69,2V323.38h44.85c0,26.21,0,52.95-.45,80.13-13.72.44-27.89.44-42,.44v42.21h41.54c0-14.77,0-28.93.45-42.65,15-.45,29.62-.45,44.21-.45v43.77h37.51v42.95l-37.51,2v42.62h-43.76c0,16.56.3,31-.09,45.42-.38,14.07,1.72,28.39-1.69,43.28h-42.26v80.45H951.81v44h-44v41.68H872V703.93l36.51-1.88V621.89H953v36.72h43c0-27.34,0-53.91.45-80.93,13.72-.45,27.89-.45,42-.45V535H996.92c0,14.76,0,28.93-.45,42.65-29.62.44-58.8.44-88,.44V534.36h43.77V446.83h44.51c-2-16,1-30.11-2.23-43.77H952.26V365.55c-15.47,0-28.84.24-42.21-.07C897,365.18,883.7,367,871,364.1V321.78h81.28V278Z"/><path d="M358.3,1090.81H272v-42.69H185c-3.36-14.79-1.27-29.08-1.65-43.14-.39-14.4-.09-28.83-.09-44.35h-42c-3.57-14.78-.5-28.88-2.41-43.86h42.84V879.09H140.93V703.17h42.3v130h88V790.35h87.35V746.93h81c0,14.59,0,29.18-.45,44.22-13.72.44-27.89.44-42,.44v42.2h41.54c0-14.76,0-28.92.45-42.64,15-.45,29.62-.45,44.21-.45v44.88h44.81v81.29h42.72v42.64h-88.6V915.74H439.58V878.07H358V835.26H313.86v43.8H227c0,40.49,0,79.9,0,119.31a5.5,5.5,0,0,0,1,2.71,15.15,15.15,0,0,0,2,2.19h84.55V1047H358.3Z"/><path d="M438.54,446.3h-298V149.73c24.87-4.32,212.58-5.66,298-1.91ZM183.74,402H395.81c0-69.6,0-138.15,0-206.7a5.19,5.19,0,0,0-1-2.67c-.57-.84-1.46-1.45-1.09-1.1H183.74Z"/><path d="M1597.3,147.23H1889V443.74c-24.72,4.48-200,5.85-291.73,2ZM1640.54,402h212c0-69.64,0-138.2,0-206.75a5.07,5.07,0,0,0-1.06-2.66c-.58-.81-1.48-1.4-1-1h-209.9Z"/><path d="M439,1604.51v291.82H142.44c-4.22-24.83-5.53-210.45-1.84-291.82ZM183.76,1858.8H395.81c0-69.57,0-138.12,0-206.66a5.48,5.48,0,0,0-1-2.7c-.54-.86-1.36-1.55-1-1.15h-210Z"/><path d="M996,1816.07H953.44v-42.7H909.59v-44.84H871v-42.65l36.5-1.86v-35.91H871.89v-43.95h35.79v-44h-36v-44h36.59v-42.93h42.8v-44.9H996v132.18H953.26v43.93H997.1v43.94h42.69v80H996Z"/><path d="M1465.39,190.93c-.45-13.9-.45-27.35-.45-42.7,13.65-3.16,27.89-1,41.9-1.42,14.38-.4,28.79-.09,44.41-.09V321.78h-42.54V279.39c-13.82-2.86-28.16-.95-42.3-1.3-14.4-.35-28.82-.07-45.23-.07v125h-37.52V365.55H1339.9V320.66h-42.66V277.89h42.66V190.48h42.59V147.79h37.62v42.69c16.31,0,30.57,0,45.28.45.44,13.72.44,27.89.44,42H1508V191.38C1493.27,191.38,1479.11,191.38,1465.39,190.93Z"/><path d="M908.49,1859.83H828.22c-.56,11.78-1.12,23.71-1.73,36.56H484.85v-35.86H651.58v-43.71h44.09v42.42h43v-86H696.83v-43.28H783v84.91h44.07v-86.29H871v86.31l37.51,2.07Z"/><path d="M1164.83,1816.07v42.31c-12.72,2.91-26,1.08-39.07,1.38-13.37.31-26.74.07-41.15.07v36H996v-79.72h86.29V1772h-42.52v-43.46h43.77v-125h81.27c0,15.45,0,29.61-.44,44.21-11.64.45-23.73.45-35.74.45v35.95h35.29c0-12.67,0-24.76.45-36.4,29.62-.45,58.8-.45,88-.45v37.52H1209.7v42.74h-80.8c-3.05,14.83-1.16,29.15-1.5,43.26-.35,14.4-.08,28.81-.08,45.3Z"/><path d="M1808.81,1090.81h42.58v42.68H1889c2.48,41.89.44,82.84,1.29,125.88h-37.66V1516h-43.77v-43.21c-45.17-1.94-88.38,1.31-130.12-1.66v-42.92h130.12Z"/><path d="M1127.32,403.06V323.3c12.69-3.06,26-1.13,39-1.45,13.38-.32,26.76-.07,41.19-.07V279H1165.8V148.26h174.1v42.22h-44.71v44.67h-43.45v130.4c-16.24,0-30.65-.31-45,.08-14,.38-28.23-1.72-41.88,1.43v36Z"/><path d="M695.92,1603.49H653.29v43.76H614.64V1517.18c-42.9-3.14-86.09.21-130.19-1.75V1392.66c-14.84-3.37-29.15-1.28-43.23-1.66-14.42-.39-28.86-.09-45.41-.09v-43.76H528.15v43.76h42.72v38.41H528v42.87H652.15v87.53h43.77Z"/><path d="M313.48,1390.91h43.79c.57,11.77,1.14,23.69,1.76,36.64H438.1v44H359.66v44h78.67v43.56H140.74v-42.86H269.57V1473.4h43.91Z"/><path d="M527.11,1647.25h87.53v36.59l36.59,1.62v86.28h-80v43.13H484.6c-3-12.47-.26-26.58-1.64-41.64h43.41v-44.14h43.21V1685H527.11Z"/><path d="M1508.71,446.83v42.69h-43.77v88.6h-81.28V446.83h37.52V403.06h42.64v43.77Z"/><path d="M270.77,534.36h42.58v42.69H357.2V534.36h38.61V577H438.5V620.8H395.81v38.6H358.3V621.45c-16,1.38-30.1-1.24-43.77,1.91v36H270.77Z"/><path d="M528.21,277.83h-44v-43h42.11V191.68H485.16c-3.58-14.87-.83-29-2.19-44h87.17V277.46h43.21v43.68H528.21Z"/><path d="M1251.56,1684.77h41.25a13.72,13.72,0,0,1,2.21,2.09,4.91,4.91,0,0,1,1.07,2.64c.05,68.38,0,136.76,0,206.49h-86.67v-35.55h42.1Z"/><path d="M184.31,1303.38H142.53a15.2,15.2,0,0,1-2.09-2.22,5.44,5.44,0,0,1-.93-2.71c0-68.57,0-137.15,0-206.68h43.11v42.32h43.16V1172H184.31Z"/><path d="M996,1428.43v-36.14c-13.81-2.86-28.14-1-42.27-1.3-14.4-.35-28.82-.08-45.26-.08v-87.53h44.89v44.81h87.54v42.72h42.64v37.52Z"/><path d="M1465.9,1773.33v86.17h129v37.14H1422.64V1773.33Z"/><path d="M1889.53,1773.28v41.83H1854.1V1859h34.53v37.48h-122v-35.76h41.32v-87.43Z"/><path d="M1721.28,915.74h43.45V959H1808v43.47h-43V1047h-43.77Z"/><path d="M183.23,659.4H140.1V578.89h43.13V534.36H227V623H183.23Z"/><path d="M270.77,1392v35.49h-43v43.31H140.25v-42.06H183.1V1392Z"/><path d="M1852.58,1516h37.31c.46,43,0,86.08.26,131.29h-37.57v-43.76h-43.77v-43.77h43.77Z"/><path d="M827.21,1472.19v86.74h-43v-43H739.68v-43.77Z"/><path d="M528.08,1646.28H483.93V1561h86v41.57H528.08Z"/><path d="M1339.9,1647.25h-87.53v-43.76h43.76v-43.77h43.77Z"/><path d="M183.23,1303.38h42.64v-43.76h44.9v87.53H183.23Z"/><path d="M996,234.25H1125.8c3.26,13.67.55,27.77,2,43.77H996Z"/><path d="M1677.52,1859.83h-36.13c-2.88-13.81-1-28.14-1.31-42.27-.35-14.4-.08-28.82-.08-45.26h81.28v42.64h-43.76Z"/><ellipse cx="227" cy="681.28" rx="61.89" ry="30.95"/><path d="M396.77,533.53V491.19H482v42.34Z"/><path d="M783.45,1647.25H695.92v-43.76h87.53Z"/><path d="M1383.66,1647.25V1727c-13.67,3.23-27.76.54-43.76,2v-81.74Z"/><path d="M827.21,1347.15v81.28H783.45v-81.28Z"/><path d="M1889.07,790.16H1853.6V704.8h35.47Z"/><path d="M996.92,189.59v-42.2h41.54v42.2Z"/><path d="M1507.82,322.67v42.21h-41.55V322.67Z"/><path d="M1721.28,1772.3v-43.77h42.29c3.17,13.67.53,27.75,1.92,43.77Z"/><path d="M1165.73,1815.17V1773h41.54v42.2Z"/><path d="M1340.4,1815v-41.65H1382V1815Z"/><path d="M1595.21,1815.53H1553.5v-41.65h41.71Z"/><path d="M871,1303.38v43.77H827.21v-43.77Z"/><circle cx="292.65" cy="1369.03" r="30.95"/><circle cx="1786.93" cy="1068.92" r="30.95"/><path d="M996,190.48v43.77H952.26V190.48Z"/><path d="M827.21,1428.43h42.28c3.25,13.66.24,27.76,2.23,43.76H827.21Z"/><path d="M1807.92,533.47h-42.2V491.92h42.2Z"/><circle cx="717.8" cy="1537.84" r="30.95"/><path d="M227,534.36V492.07c13.67-3.17,27.74-.53,43.77-1.92v44.21Z"/><path d="M182.34,533.47h-42.2V491.92h42.2Z"/><path d="M1509.6,445.93v-42.2h41.55v42.2Z"/><path d="M908.49,1303.38H871v-43.76h37.51Z"/><path d="M871.85,189.58V147.41h35.32v42.17Z"/><path d="M1421.18,1647.25h-37.52v-43.76h37.52Z"/><path d="M1853.11,1002.24V960.55h35.4v41.69Z"/><path d="M784.36,1648.13h42.17v35.31H784.36Z"/><path d="M909.4,1860.71h42.17V1896H909.4Z"/><path d="M1678.43,1860.71h42.17V1896h-42.17Z"/><path d="M1853.47,879.12h36v35.3h-36Z"/><path d="M1208.16,1046.59c.44,29,.44,57.63.44,88-15.44,0-29.6,0-44.2-.45-.44-13.7-.44-27.86-.44-42h-36v41.53c12.66,0,24.76,0,36.42.46.43,27,.43,53.6.43,80.94h-36.75v-43h-44.89c-.37-70.32-.37-140.63-.37-211.35H996.73v43h43.06c0,56,0,109.81,0,163.66a5.11,5.11,0,0,0,1.07,2.64,14.66,14.66,0,0,0,2.21,2.09h40.08c.37,28.59.37,57.18.37,87.53h-43.77v-43.54H996.62V1090.81H952.26V916.47H1207.6c.57-12.45,1.11-24.4,1.69-37.26h42.1v124.06h44.74v88c16-1.42,30.1,1.27,43.77-2v-86h43.76v87.54c15.4,0,28.77,0,42.15,0,13.09,0,26.19-.08,39.13-.12V1047c14.59,0,29.18,0,44.21.45.45,13.72.45,27.88.45,42h42.2v-41.55c-14.76,0-28.93,0-42.65-.44-.44-29.63-.44-58.8-.44-88h42.69v43.76H1640v130.07h-43.76v38.75h-43.45v-36.28h-87.85v36.28h-43c-.68-13.91-1.26-25.8-1.78-36.45h-35.74c-.7,12.92-1.34,24.8-2,36.45-15.63,0-29.1,0-43-.44-.45-11.66-.45-23.74-.45-35.75h-42.17v35.31c14.77,0,28.92,0,42.62.44.46,14.73.46,29,.46,44.2,41.48,0,80.84,0,120.2,0a5.17,5.17,0,0,0,2.68-1,14.52,14.52,0,0,0,2.16-2.2v-40.53h43.44v43.29h43.47v43.47h44.39v44.53h-131.3v-44.5c-16,2-30.1-1-43.76,2.22v42.28h-38.34v-43H1339.9v86.73h-43.77v-87.53h-43.76v-43.57h-42.6v-43.63h41.36V1047c-14.08,0-28.31,0-43-.45-.45-28.29-.45-57-.45-85.75H1128v85.3C1155.27,1046.14,1181.93,1046.14,1208.16,1046.59Z"/><path d="M871,1259.62H827.21v-43.77H783.45V1092h43.76v-45h42.23c3.23-13.6,1.06-27.83,1.45-41.8.4-14.38.09-28.79.09-44.45h37.51c0,43.58,0,86.8-.43,130.47-11.66.45-23.74.45-35.75.45v42.17h35.31c0-14.77,0-28.92.44-42.62,15-.45,29.61-.45,44.2-.45v123.48c-12.66,3.15-26,1.16-39,1.49-13.39.33-26.78.07-42.29.07Z"/><path d="M1339.9,703.17v43.76h-86.4V704.2H1128.36v41.74H1085V659.4h211.09v43.77Z"/><path d="M1252.37,578.12V534.61h42.56V491h-41.26v-88h42.46v43.77h43.77V578.12Z"/><path d="M1508.71,915.74v43.77h-43.77V1047h-44.88v-43.77h-36.4V915.74Z"/><path d="M826.37,1046.2h-86v-42.41h42.47V960.87h43.5Z"/><path d="M1127.32,534.36h81.28v43.76h-43.44v42.52h-37.84Z"/><path d="M1083.56,834.46V790.7h81.27v86.72h-36.74v-43Z"/><path d="M996,834.46h87.54v42.36c-13.79,2.93-28.11,1-42.21,1.33-14.41.36-28.82.08-45.33.08Z"/><ellipse cx="739.68" cy="1237.73" rx="61.89" ry="30.95"/><path d="M1296.13,1003.27v-86c13.67-3.23,27.76-.54,43.77-2v88Z"/><path d="M570.87,1047V959.51h42.36c2.93,13.78,1,28.1,1.33,42.21.36,14.4.08,28.82.08,45.32Z"/><path d="M908.49,578.12v43.77H828.31c-.36-6.68-.88-13.5-1-20.33-.19-7.12,0-14.26,0-23.44Z"/><path d="M782.56,445.93H740.35V404.39h42.21Z"/><circle cx="930.38" cy="856.35" r="30.95"/><path d="M783.45,790.7V746.93h42.28c3.17,13.67.54,27.75,1.93,43.77Z"/><path d="M1295.24,833.57H1253V792h42.2Z"/><path d="M952.26,834.46V790.7H996v43.76Z"/><path d="M1165.73,789.81V747.6h41.54v42.21Z"/><path d="M996.92,789.81V747.6h41.54v42.21Z"/><path d="M1383.66,659.4v43.77H1339.9V659.4Z"/><path d="M1208.6,578.12h43.77v42.29c-13.67,3.17-27.75.53-43.77,1.92Z"/><path d="M783.45,446.83h43.76v43.76H783.45Z"/><circle cx="1361.78" cy="424.94" r="30.95"/><path d="M952.26,403.06v43.77H910c-3.25-13.67-.23-27.76-2.23-43.77Z"/><path d="M828.11,445.93v-42.2h41.54v42.2Z"/><path d="M1296.13,659.4v-36c13.67-3.15,27.74-.53,43.77-1.91V659.4Z"/><path d="M907.62,533.45h-36V491.92h36Z"/><path d="M907.6,879.12v36H872.3v-36Z"/><path d="M270.77,703.17h43.76v42.28c-13.67,3.17-27.74.54-43.76,1.93Z"/><path d="M314.53,659.4H358.3v43.77H314.53Z"/><path d="M1639.11,958.62h-42.2V917.07h42.2Z"/><path d="M1722.18,1348h42.2v41.55h-42.2Z"/><path d="M1640,1003.27V959.51h36c3.15,13.66.53,27.74,1.91,43.76Z"/><path d="M1339.9,1516h-43.77v-87h-42.42v-81.8h42.42v43.76h43.77Z"/><path d="M1339.9,1559.72V1516h81.28v43.76Z"/><path d="M1421.18,1347.15v43.76H1339.9v-43.76Z"/><path d="M1464.94,1429v41.69c-12.69,3-26,1.1-39,1.41-13.36.32-26.73.07-41.18.07v-42.56c12.65-2.76,26.94-.81,41-1.1C1438.87,1428.26,1452,1428.83,1464.94,1429Z"/><circle cx="1443.06" cy="1325.26" r="30.95"/><path d="M1465.83,1348H1508v41.55h-42.21Z"/><path d="M1421.18,1603.49v-43.77h43.76v43.77Z"/><path d="M1596.79,1646.24V1604.5h41.65v41.74Z"/><path d="M358.3,959.51V915.74h81.28v43.77Z"/><path d="M358.3,1047v-43.77h81.28V1047Z"/><path d="M358.3,1003.27H314.53V959.51H358.3Z"/><path d="M783.45,1303.38v43.77H741.17c-3,12.68-1.11,25.95-1.42,39-.31,13.36-.07,26.73-.07,41.18H697v44.86H652.15v-42.6l-37.51-2v-36.7h81.28c0-9.15.14-16.3,0-23.44-.18-6.82-.7-13.64-1.06-20.32H614.64v-43.77h37.51v-43.76h43.77v43.76Z"/><path d="M614.64,1390.91H570.87v-43.76h43.77Z"/><path d="M1164.83,446.83V403.06h42.31c3.25,13.66.16,27.76,2.23,43.77Z"/><path d="M1339.9,365.55v37.51h-43.77V365.55Z"/><path d="M227.55,364.45V235.35h130.1c1.51,41.87.18,84.94.75,129.1Z"/><path d="M1678.06,364.46V235.34h129.87c2.06,41.88.25,85,1,129.12Z"/><path d="M357.24,1815.56H228.06V1685.83c41.93-2.5,85-.26,129.18-1.27Z"/><path d="M1083.56,1428.43h43.76v-37.52h37.51c0,28.28,0,54.78-.43,81.74-11.66.45-23.74.45-35.75.45v42.17H1164c0-14.77,0-28.92.44-42.62,29-.46,57.62-.46,88-.46V1516H1208.6v43.76h-125v-42.59h-42.7v-43.86h42.7Z"/><path d="M1083.56,1559.72v43.77h-42.28c-3.25-13.66-.23-27.76-2.23-43.77Z"/><path d="M1252.37,1559.72v43.77H1208.6v-43.77Z"/><path d="M1127.32,1390.91h-43.76v-87.39h42.65v-42.24h37.58v84.77l-36.47,1.91Z"/><path d="M1038.9,1260.51v42.2H997.35v-42.2Z"/><path d="M1251.47,1260.51v42.2h-41.54v-42.2Z"/><circle cx="1274.25" cy="1537.84" r="30.95"/><circle cx="805.33" cy="1281.5" r="30.95"/></svg>